<svg viewBox="0 0 40 32" fill="none" xmlns="http://www.w3.org/2000/svg">
<path d="M9.26289 31.2C12.0629 31.2 14.2962 30.2333 15.9629 28.3C17.6296 26.3 18.4629 23.6 18.4629 20.2C18.4629 15.9333 17.0962 12.0333 14.3629 8.49999C11.6296 4.96666 7.02956 2.33333 0.562887 0.599995V5.79999C2.49622 6.46666 4.12956 7.16666 5.46289 7.9C6.72956 8.56666 7.69622 9.36666 8.36289 10.3C9.02956 11.1667 9.36289 12.2667 9.36289 13.6C9.36289 14.3333 9.12956 14.9333 8.66289 15.4C8.12956 15.8667 7.49622 16.3 6.76289 16.7C6.02956 17.1 5.32956 17.6 4.66289 18.2C3.92955 18.7333 3.32955 19.5 2.86289 20.5C2.32955 21.4333 2.06289 22.7 2.06289 24.3C2.06289 26.5667 2.76289 28.3 4.16289 29.5C5.49622 30.6333 7.19622 31.2 9.26289 31.2ZM30.1629 31.2C32.9629 31.2 35.1962 30.2333 36.8629 28.3C38.5296 26.3 39.3629 23.6 39.3629 20.2C39.3629 15.9333 37.9962 12.0333 35.2629 8.49999C32.5296 4.96666 27.9296 2.33333 21.4629 0.599995V5.79999C23.3962 6.46666 25.0296 7.16666 26.3629 7.9C27.6296 8.56666 28.5962 9.36666 29.2629 10.3C29.9296 11.1667 30.2629 12.2667 30.2629 13.6C30.2629 14.3333 30.0296 14.9333 29.5629 15.4C29.0296 15.8667 28.4296 16.3 27.7629 16.7C27.0296 17.1 26.2962 17.6 25.5629 18.2C24.8296 18.7333 24.2296 19.5 23.7629 20.5C23.2296 21.4333 22.9629 22.7 22.9629 24.3C22.9629 26.5667 23.6629 28.3 25.0629 29.5C26.3962 30.6333 28.0962 31.2 30.1629 31.2Z" fill="#F5F5F5"/>
</svg>
