<svg viewBox="0 0 119 289" fill="none" xmlns="http://www.w3.org/2000/svg">
<path d="M40.9258 55.3049H76.1479V69.1647C76.1479 71.5527 75.1993 73.8428 73.5108 75.5313C71.8223 77.2198 69.5322 78.1684 67.1442 78.1684H49.9295C47.5416 78.1684 45.2514 77.2198 43.5629 75.5313C41.8744 73.8428 40.9258 71.5527 40.9258 69.1647V55.3049H40.9258Z" fill="#2F2E41"/>
<path d="M87.8887 239.449C79.8679 247.575 71.8348 247.63 63.7895 239.711L57.61 185.071L53.2845 239.825C45.2446 246.332 37.7521 247.208 31.0389 240.067C24.635 192.759 21.1542 148.809 26.7134 115.244L14.9727 67.6636L41.5438 55.3049C46.8946 68.5409 38.4554 75.3107 57.5389 75.0841C76.4542 74.8595 75.0415 67.7441 74.2942 55.3049L98.7371 64.7061C100.819 65.5067 102.517 67.0713 103.485 69.0807C104.452 71.0901 104.617 73.393 103.946 75.5199L91.5963 114.626C96.3505 134.368 91.4691 189.283 87.8887 239.449Z" fill="#E6E6E6"/>
<path d="M50.8122 287.03C50.8122 287.03 31.0859 288.758 28.4433 287.669C28.2765 287.601 28.1142 287.526 27.9563 287.445C24.0292 285.44 23.9095 279.825 27.58 277.381L35.3639 272.199L28.5666 235.741L54.8288 236.05L50.8122 287.03Z" fill="#808080"/>
<path d="M65.6416 287.339C65.6416 287.339 85.368 289.067 88.0105 287.978C88.1773 287.91 88.3396 287.835 88.4975 287.754C92.4246 285.749 92.5443 280.134 88.8739 277.69L81.0899 272.508L90.6679 236.05H63.1699L65.6416 287.339Z" fill="#808080"/>
<path d="M19.2977 157.264L23.2078 172.904C23.6884 174.827 23.5509 176.852 22.8147 178.691C22.0786 180.531 20.7813 182.092 19.1073 183.152V183.152C17.7546 184.009 16.206 184.507 14.6076 184.599C13.0092 184.691 11.4136 184.375 9.97134 183.679C8.52913 182.984 7.28786 181.933 6.3646 180.625C5.44134 179.317 4.86655 177.795 4.69446 176.203L3.84941 168.387L0.759766 94.0978C0.759765 87.9189 2.59145 81.8787 6.02332 76.7406C9.4552 71.6024 14.3332 67.5969 20.0409 65.2303L26.095 62.7201L19.2977 157.264Z" fill="#E6E6E6"/>
<path d="M117.55 93.4809L117.532 93.9196L115.035 153.884L114.553 165.47L114.46 167.769L113.614 175.586C113.475 176.87 113.074 178.113 112.434 179.236C111.795 180.359 110.932 181.338 109.898 182.114C108.864 182.889 107.682 183.443 106.424 183.742C105.167 184.041 103.862 184.079 102.59 183.852C101.318 183.625 100.106 183.139 99.0292 182.424C97.9527 181.709 97.0348 180.781 96.3325 179.696C95.6301 178.611 95.1583 177.394 94.9464 176.119C94.7345 174.844 94.7869 173.539 95.1006 172.286L99.0121 156.646L98.9256 155.484L98.4065 148.217L92.2148 62.1023L98.2706 64.6111C103.975 66.9831 108.849 70.9903 112.28 76.1278C115.711 81.2652 117.545 87.3032 117.55 93.4809V93.4809Z" fill="#E6E6E6"/>
<path d="M60.1174 161.719C37.6709 161.719 23.8247 153.935 23.6289 153.822L24.2465 152.751C24.5223 152.911 52.2919 168.487 93.0905 154.985L93.4791 156.158C82.7284 159.788 71.4641 161.665 60.1174 161.719V161.719Z" fill="#2F2E41"/>
<path d="M37.8892 218.69C32.9494 207.575 32.9243 159.266 32.9258 157.215L34.1617 157.216C34.1614 157.716 34.1846 207.312 39.0188 218.188L37.8892 218.69Z" fill="#2F2E41"/>
<path d="M40.4588 219.189C36.0585 219.189 33.1348 218.251 31.2288 217.177C27.7583 215.22 27.0423 212.553 27.0137 212.441L28.2109 212.134L27.6123 212.288L28.21 212.131C28.2351 212.225 28.8599 214.445 31.8905 216.131C35.2272 217.986 41.9439 219.371 54.9869 215.427L55.3441 216.61C49.102 218.498 44.2364 219.189 40.4588 219.189Z" fill="#2F2E41"/>
<path d="M29.4202 61.2002L28.1855 61.2606L32.9257 158.046L34.1603 157.985L29.4202 61.2002Z" fill="#2F2E41"/>
<path d="M79.8035 218.69L78.6738 218.188C83.5081 207.312 83.5316 157.716 83.531 157.216L84.7669 157.215C84.7681 159.266 84.7433 207.575 79.8035 218.69Z" fill="#2F2E41"/>
<path d="M77.2329 219.189C73.4553 219.189 68.5909 218.498 62.3477 216.61L62.7049 215.427C75.7479 219.371 82.463 217.987 85.8013 216.131C88.8318 214.445 89.4564 212.225 89.4812 212.131L90.6778 212.441C90.6488 212.553 89.9332 215.22 86.4627 217.177C84.557 218.251 81.6321 219.189 77.2329 219.189Z" fill="#2F2E41"/>
<path d="M88.2656 61.2001L83.5352 157.986L84.7698 158.046L89.5003 61.2604L88.2656 61.2001Z" fill="#2F2E41"/>
<path d="M76.0744 75.6969L66.8794 89.291H47.1056L40.4941 75.6969H43.3984L48.3418 86.8195H65.0258L73.0591 75.6969H76.0744Z" fill="#6C63FF"/>
<path d="M98.3945 82.4939L98.5551 82.8151L98.3945 83.1118V82.4939Z" fill="black"/>
<path d="M118.784 93.4807L118.766 93.9195L107.044 97.3243L99.7891 82.8152L107.21 69.2084C110.827 72.1358 113.743 75.8346 115.745 80.0342C117.748 84.2339 118.786 88.8281 118.784 93.4807V93.4807Z" fill="#FCFCFC"/>
<path d="M2.58718e-06 93.4807L0.0185628 93.9195L11.7407 97.3243L18.9952 82.8152L11.5739 69.2084C7.95757 72.1358 5.04147 75.8346 3.03894 80.0342C1.03641 84.2339 -0.00189165 88.8281 2.58718e-06 93.4807V93.4807Z" fill="#F7F7F7"/>
<path d="M58.5375 65.5008C76.6251 65.5008 91.2879 50.838 91.2879 32.7504C91.2879 14.6629 76.6251 0 58.5375 0C40.45 0 25.7871 14.6629 25.7871 32.7504C25.7871 50.838 40.45 65.5008 58.5375 65.5008Z" fill="#E6E6E6"/>
<path d="M115.386 153.884L114.885 165.47L99.0356 156.955L98.6244 155.484L98.084 148.217L115.386 153.884Z" fill="#F7F7F7"/>
<path d="M2.65625 153.884L3.18356 165.47L19.8419 156.955L20.2747 155.484L20.8425 148.217L2.65625 153.884Z" fill="#F7F7F7"/>
<path d="M67.2074 89.9094H46.7183L35.3742 66.5901L34.791 58.2026L36.0239 58.1172L36.5905 66.265L47.4922 88.6731H66.5508L80.531 68.0075L83.507 58.8831L84.6829 59.2658L81.6033 68.6282L67.2074 89.9094Z" fill="#2F2E41"/>
<rect x="17.8477" y="36.3296" width="79.1546" height="113.892" rx="10" fill="#BABABA"/>
<circle cx="59.5" cy="78.5" r="15.5" fill="#808080"/>
</svg>
