<svg viewBox="0 0 571 660" fill="none" xmlns="http://www.w3.org/2000/svg">
<path d="M2.69379 134.442C5.9639 119.029 9.76121 110.565 17.803 96.7684C25.3805 83.7683 31.1226 77.1545 41.726 66.1588C56.6924 50.6385 66.7992 43.0288 85.7946 32.0173C104.126 21.391 115.626 16.9998 136.159 10.826C158.559 4.09058 171.825 1.10898 195.337 0.230396C214.065 -0.469444 224.799 0.346756 243.182 3.76227C254.18 5.80554 260.546 6.76272 270.883 10.826C280.834 14.7381 286.191 17.6926 294.806 23.7762C316.792 39.3039 322.807 54.8737 335.097 77.9317C341.492 89.9286 344.316 97.0331 348.947 109.719C353.726 122.808 356.685 130.202 359.02 143.86C362.357 163.382 364.528 175.396 359.02 194.484C354.552 209.969 348.781 217.886 338.874 230.98C330.03 242.669 324.114 248.798 312.433 258.057C297.96 269.53 287.572 273.164 270.883 281.603C250.371 291.975 238.939 298.469 216.741 305.149C184.635 314.811 164.036 322.632 131.122 315.745C113.922 312.145 104.506 308.017 89.5719 299.263C77.7299 292.321 71.9019 287.173 61.8716 278.071C40.6234 258.791 29.7533 245.714 17.803 220.384C3.12128 189.264 -4.3849 167.805 2.69379 134.442Z" fill="url(#paint0_linear_718_485)"/>
<path d="M324.125 85.9429C324.125 85.9429 348.089 94.3295 354.53 99.1236C360.013 103.204 362.516 106.384 366.303 112.074C372.266 121.033 374.151 127.327 375.721 137.974C376.862 145.706 376.862 150.256 375.721 157.988C374.151 168.636 354.53 201.317 354.53 201.317L324.125 85.9429Z" fill="#B7B7C3"/>
<g filter="url(#filter0_f_718_485)">
<path d="M347.48 109.887L352.711 106.187C352.711 106.187 357.831 114.293 360.556 119.754C364.271 127.201 365.973 131.582 368.401 139.487C369.572 143.302 371.61 145.422 371.016 149.354C370.435 153.199 365.786 157.988 365.786 157.988C365.786 157.988 363.128 145.818 360.556 138.254C356.643 126.752 347.48 109.887 347.48 109.887Z" fill="white" fill-opacity="0.5"/>
</g>
<path d="M21.3469 153.278C24.4045 137.866 27.9551 129.402 35.4744 115.605C42.5595 102.605 47.9286 95.9912 57.843 84.9954C71.837 69.4751 81.287 61.8655 99.0482 50.854C116.188 40.2276 126.941 35.8365 146.14 29.6627C167.085 22.9273 179.489 19.9456 201.473 19.0671C218.984 18.3672 229.021 19.1834 246.21 22.5989C256.493 24.6422 262.445 25.5994 272.11 29.6627C281.415 33.5747 286.424 36.5293 294.479 42.6129C315.037 58.1406 320.66 73.7103 332.152 96.7684C338.131 108.765 340.772 115.87 345.102 128.555C349.57 141.645 352.337 149.039 354.521 162.697C357.641 182.219 359.67 194.233 354.521 213.32C350.343 228.806 344.947 236.723 335.684 249.816C327.414 261.506 321.883 267.634 310.961 276.894C297.428 288.367 287.716 292.001 272.11 300.44C252.931 310.812 242.242 317.306 221.487 323.986C191.467 333.648 172.206 341.469 141.431 334.581C125.348 330.982 116.544 326.854 102.58 318.099C91.5075 311.157 86.0582 306.01 76.6796 296.908C56.812 277.627 46.6482 264.551 35.4744 239.221C21.7466 208.101 14.7281 186.641 21.3469 153.278Z" fill="url(#paint1_linear_718_485)"/>
<path d="M121.277 341.159C121.277 341.159 196.112 260.515 257.843 230.493C323.77 198.431 441.501 191.643 441.501 191.643C441.501 191.643 489.291 260.867 512.138 309.372C546.479 382.277 571.001 507.157 571.001 507.157L313.174 659.028C313.174 659.028 243.138 578.866 207.22 521.285C165.969 455.156 121.277 341.159 121.277 341.159Z" fill="#CACACA"/>
<path d="M213.082 216.365C151.35 246.387 76.5156 327.031 76.5156 327.031C76.5156 327.031 121.207 441.028 162.458 507.156C198.377 564.737 268.412 644.9 268.412 644.9L313.151 659.027C313.151 659.027 243.114 578.865 207.195 521.284C165.944 455.155 121.253 341.158 121.253 341.158C121.253 341.158 196.087 260.515 257.819 230.493C323.745 198.43 441.476 191.642 441.476 191.642C441.476 191.642 489.267 260.866 512.114 309.371C543.836 376.715 567.18 488.409 570.555 505.055L570.979 504.802C570.979 504.802 555.706 390.898 526.241 324.676C501.199 268.392 441.476 191.642 441.476 191.642L396.739 177.514C396.739 177.514 279.008 184.303 213.082 216.365Z" fill="#ACAAAA"/>
<path d="M76.5156 327.032C76.5156 327.032 121.207 441.029 162.458 507.158C198.377 564.739 268.412 644.901 268.412 644.901L313.151 659.028C313.151 659.028 243.114 578.866 207.195 521.285C165.944 455.156 121.253 341.159 121.253 341.159L76.5156 327.032Z" fill="#BBB8B8"/>
<path d="M23.7092 205.079L81.3955 299.262C81.3955 299.262 64.0357 300.122 54.3178 295.73C43.3523 290.775 39.0076 284.285 31.9492 274.539C25.0735 265.046 21.9233 258.812 18.999 247.461C15.2138 232.769 23.7092 205.079 23.7092 205.079Z" fill="#B7B6B2"/>
<defs>
<filter id="filter0_f_718_485" x="343.48" y="102.187" width="31.6406" height="59.801" filterUnits="userSpaceOnUse" color-interpolation-filters="sRGB">
<feFlood flood-opacity="0" result="BackgroundImageFix"/>
<feBlend mode="normal" in="SourceGraphic" in2="BackgroundImageFix" result="shape"/>
<feGaussianBlur stdDeviation="2" result="effect1_foregroundBlur_718_485"/>
</filter>
<linearGradient id="paint0_linear_718_485" x1="14.1275" y1="115.375" x2="293.146" y2="160.112" gradientUnits="userSpaceOnUse">
<stop stop-color="white"/>
<stop offset="1" stop-color="#787877"/>
</linearGradient>
<linearGradient id="paint1_linear_718_485" x1="18.8281" y1="157.757" x2="234.273" y2="163.644" gradientUnits="userSpaceOnUse">
<stop stop-color="#CBCBCB"/>
<stop offset="1" stop-color="#828380"/>
</linearGradient>
</defs>
</svg>