<svg viewBox="0 0 196 729" fill="none" xmlns="http://www.w3.org/2000/svg">
<path d="M69.2547 607C85.3815 607 96.5462 607 123.838 607C153.874 607 131.281 693.535 123.838 693.535C116.395 693.535 96.5462 728.429 96.5462 728.429C96.5462 728.429 80.4194 693.535 69.2547 693.535C58.09 693.535 41.3897 607 69.2547 607Z" fill="#E36018"/>
<path d="M73.9924 607C87.3145 607 96.5375 607 119.083 607C143.895 607 125.231 671.901 119.083 671.901C112.934 671.901 96.5375 698.071 96.5375 698.071C96.5375 698.071 83.2154 671.901 73.9924 671.901C64.7694 671.901 50.9734 607 73.9924 607Z" fill="#FFAE44"/>
<path d="M81.0988 607C90.2139 607 96.5244 607 111.95 607C128.927 607 116.157 650.268 111.95 650.268C107.743 650.268 96.5244 667.714 96.5244 667.714C96.5244 667.714 87.4093 650.268 81.0988 650.268C74.7883 650.268 65.349 607 81.0988 607Z" fill="#FCE25E"/>
<path d="M176.754 295.195C176.754 574.239 141.666 574.239 98.3948 574.239C76.0235 574.239 55.8413 574.239 41.5692 535.693C37.4658 524.615 33.8409 510.33 30.8022 491.943C23.9592 450.61 20.0352 388.496 20.0352 295.194C20.0352 259.317 24.2822 224.144 30.8022 191.293C33.9365 175.478 37.5972 160.213 41.5692 145.653C46.4263 127.828 51.7499 111.067 57.1214 95.7303C60.7224 85.4179 64.3593 75.7396 67.8884 66.803C84.1944 25.5536 98.3949 0 98.3949 0C98.3949 0 176.754 141.083 176.754 295.195Z" fill="#F2F2F2"/>
<path d="M96.0015 235.677C119.787 235.677 139.069 216.395 139.069 192.609C139.069 168.824 119.787 149.542 96.0015 149.542C72.2158 149.542 52.9336 168.824 52.9336 192.609C52.9336 216.395 72.2158 235.677 96.0015 235.677Z" fill="#6C63FF" fill-opacity="0.5"/>
<path d="M190.511 547.919C180.935 524.347 168.639 520.281 160.602 520.634V516.814H34.9877V520.634C26.9509 520.281 14.6555 524.347 5.07955 547.919C-10.4727 586.202 14.6501 652 14.6501 652C14.6501 652 1.22398 560.233 45.8085 559.629C49.6696 564.665 54.4077 568.964 59.7951 572.318V597H131.795V574.566C138.833 570.996 144.98 565.891 149.782 559.629C194.366 560.233 180.94 652 180.94 652C180.94 652 206.063 586.202 190.511 547.919Z" fill="#6C63FF"/>
<path d="M96.0012 226.106C114.501 226.106 129.498 211.109 129.498 192.609C129.498 174.109 114.501 159.112 96.0012 159.112C77.5011 159.112 62.5039 174.109 62.5039 192.609C62.5039 211.109 77.5011 226.106 96.0012 226.106Z" fill="#6C63FF"/>
</svg>
