<svg viewBox="0 0 1733 1273" fill="none" xmlns="http://www.w3.org/2000/svg" preserveAspectRatio='none'>
<circle cx="866.501" cy="636.837" r="548.727" stroke="#929292" stroke-width="100"/>
<circle cx="866.499" cy="636.837" r="490.312" stroke="#F4F4F4" stroke-width="50"/>
<path d="M1308 636.5C1308 880.334 1110.33 1078 866.5 1078C622.666 1078 425 880.334 425 636.5C425 392.666 622.666 195 866.5 195C1110.33 195 1308 392.666 1308 636.5Z" stroke="#929292" stroke-width="50"/>
<path d="M1285 636.5C1285 867.631 1097.63 1055 866.5 1055C635.369 1055 448 867.631 448 636.5C448 405.369 635.369 218 866.5 218C1097.63 218 1285 405.369 1285 636.5Z" stroke="#F4F4F4" stroke-width="20"/>
<path d="M1265 637C1265 857.373 1086.57 1036 866.5 1036C646.426 1036 468 857.373 468 637C468 416.627 646.426 238 866.5 238C1086.57 238 1265 416.627 1265 637Z" stroke="#929292" stroke-width="20"/>
<path fill-rule="evenodd" clip-rule="evenodd" d="M1733 0H0V1272.67H1733V0ZM866.5 1235.56C1197.17 1235.56 1465.23 967.505 1465.23 636.837C1465.23 306.169 1197.17 38.11 866.5 38.11C535.832 38.11 267.773 306.169 267.773 636.837C267.773 967.505 535.832 1235.56 866.5 1235.56Z" fill="#F4F4F4"/>
<g filter="url(#filter0_i_719_139)">
<circle cx="310.5" cy="636.336" r="27.5" fill="#949494"/>
</g>
<circle cx="310.5" cy="636.336" r="27" stroke="#4A4A4A" stroke-opacity="0.5"/>
<g filter="url(#filter1_i_719_139)">
<circle cx="872.5" cy="1191.34" r="27.5" fill="#949494"/>
</g>
<circle cx="872.5" cy="1191.34" r="27" stroke="#4A4A4A" stroke-opacity="0.5"/>
<g filter="url(#filter2_i_719_139)">
<circle cx="1267.5" cy="1029.34" r="27.5" fill="#949494"/>
</g>
<circle cx="1267.5" cy="1029.34" r="27" stroke="#4A4A4A" stroke-opacity="0.5"/>
<g filter="url(#filter3_i_719_139)">
<circle cx="477.5" cy="1034.34" r="27.5" fill="#949494"/>
</g>
<circle cx="477.5" cy="1034.34" r="27" stroke="#4A4A4A" stroke-opacity="0.5"/>
<g filter="url(#filter4_i_719_139)">
<circle cx="872.5" cy="77.3359" r="27.5" fill="#949494"/>
</g>
<circle cx="872.5" cy="77.3359" r="27" stroke="#4A4A4A" stroke-opacity="0.5"/>
<g filter="url(#filter5_i_719_139)">
<circle cx="1424.5" cy="636.336" r="27.5" fill="#949494"/>
</g>
<circle cx="1424.5" cy="636.336" r="27" stroke="#4A4A4A" stroke-opacity="0.5"/>
<g filter="url(#filter6_i_719_139)">
<circle cx="474.5" cy="245.336" r="27.5" fill="#949494"/>
</g>
<circle cx="474.5" cy="245.336" r="27" stroke="#4A4A4A" stroke-opacity="0.5"/>
<g filter="url(#filter7_i_719_139)">
<circle cx="1259.5" cy="241.336" r="27.5" fill="#949494"/>
</g>
<circle cx="1259.5" cy="241.336" r="27" stroke="#4A4A4A" stroke-opacity="0.5"/>
<g filter="url(#filter8_i_719_139)">
<rect x="40" y="477.836" width="183" height="264" rx="20" fill="#B1B1B1"/>
</g>
<g filter="url(#filter9_i_719_139)">
<rect x="63" y="510.836" width="36.8" height="36.8" rx="5" fill="#C4C4C4"/>
</g>
<g filter="url(#filter10_i_719_139)">
<rect x="63" y="564.196" width="36.8" height="36.8" rx="5" fill="#C4C4C4"/>
</g>
<g filter="url(#filter11_i_719_139)">
<rect x="63" y="617.556" width="36.8" height="36.8" rx="5" fill="#C4C4C4"/>
</g>
<g filter="url(#filter12_i_719_139)">
<rect x="63" y="670.916" width="36.8" height="36.8" rx="5" fill="#C4C4C4"/>
</g>
<g filter="url(#filter13_i_719_139)">
<rect x="113.602" y="510.836" width="36.8" height="36.8" rx="5" fill="#C4C4C4"/>
</g>
<g filter="url(#filter14_i_719_139)">
<rect x="113.602" y="564.196" width="36.8" height="36.8" rx="5" fill="#C4C4C4"/>
</g>
<g filter="url(#filter15_i_719_139)">
<rect x="113.602" y="617.556" width="36.8" height="36.8" rx="5" fill="#C4C4C4"/>
</g>
<g filter="url(#filter16_i_719_139)">
<rect x="113.602" y="670.916" width="36.8" height="36.8" rx="5" fill="#C4C4C4"/>
</g>
<g filter="url(#filter17_i_719_139)">
<rect x="164.199" y="510.836" width="36.8" height="36.8" rx="5" fill="#C4C4C4"/>
</g>
<g filter="url(#filter18_i_719_139)">
<rect x="164.199" y="564.196" width="36.8" height="36.8" rx="5" fill="#C4C4C4"/>
</g>
<g filter="url(#filter19_i_719_139)">
<rect x="164.199" y="617.556" width="36.8" height="36.8" rx="5" fill="#C4C4C4"/>
</g>
<g filter="url(#filter20_i_719_139)">
<rect x="164.199" y="670.916" width="36.8" height="36.8" rx="5" fill="#C4C4C4"/>
</g>
<path d="M82.5206 524.113V534.836H81.1656V525.805L78.4337 526.801V525.578L82.3082 524.113H82.5206Z" fill="black"/>
<path d="M85.2745 584.607V585.72H77.5694V584.922L82.3448 577.532H83.4508L82.2643 579.671L79.1075 584.607H85.2745ZM83.7877 577.532V588.196H82.4327V577.532H83.7877Z" fill="black"/>
<path d="M84.9596 630.892V631.654L80.5431 641.556H79.1148L83.524 632.005H77.7525V630.892H84.9596Z" fill="black"/>
<path d="M84.1905 691.525H85.5968C85.5235 692.199 85.3307 692.802 85.0182 693.334C84.7057 693.866 84.2638 694.289 83.6925 694.601C83.1212 694.909 82.4083 695.062 81.5538 695.062C80.9288 695.062 80.36 694.945 79.8473 694.711C79.3395 694.477 78.9024 694.145 78.5362 693.715C78.17 693.28 77.8868 692.76 77.6866 692.155C77.4913 691.544 77.3937 690.866 77.3937 690.119V689.057C77.3937 688.31 77.4913 687.633 77.6866 687.028C77.8868 686.417 78.1725 685.895 78.5436 685.46C78.9195 685.026 79.3712 684.691 79.8985 684.457C80.4259 684.223 81.0191 684.105 81.6783 684.105C82.484 684.105 83.1651 684.257 83.7218 684.56C84.2784 684.862 84.7105 685.282 85.0182 685.819C85.3307 686.352 85.5235 686.969 85.5968 687.672H84.1905C84.1222 687.174 83.9952 686.747 83.8097 686.391C83.6241 686.029 83.3604 685.751 83.0187 685.556C82.6769 685.36 82.2301 685.263 81.6783 685.263C81.2047 685.263 80.7872 685.353 80.4259 685.534C80.0694 685.714 79.7691 685.971 79.525 686.303C79.2857 686.635 79.1051 687.033 78.983 687.497C78.8609 687.96 78.7999 688.476 78.7999 689.042V690.119C78.7999 690.641 78.8536 691.132 78.961 691.591C79.0733 692.05 79.2418 692.453 79.4664 692.799C79.691 693.146 79.9767 693.419 80.3233 693.62C80.67 693.815 81.0802 693.913 81.5538 693.913C82.1544 693.913 82.6329 693.817 82.9894 693.627C83.3458 693.437 83.6144 693.163 83.795 692.807C83.9806 692.45 84.1124 692.023 84.1905 691.525Z" fill="black"/>
<path d="M135.656 533.723V534.836H128.676V533.862L132.17 529.973C132.6 529.494 132.932 529.089 133.166 528.757C133.405 528.42 133.571 528.12 133.664 527.856C133.762 527.587 133.811 527.314 133.811 527.036C133.811 526.684 133.737 526.367 133.591 526.083C133.449 525.795 133.239 525.566 132.961 525.395C132.683 525.224 132.346 525.139 131.95 525.139C131.477 525.139 131.081 525.231 130.764 525.417C130.451 525.598 130.217 525.852 130.061 526.179C129.904 526.506 129.826 526.882 129.826 527.307H128.471C128.471 526.706 128.603 526.157 128.867 525.659C129.13 525.161 129.521 524.765 130.039 524.472C130.556 524.174 131.193 524.025 131.95 524.025C132.624 524.025 133.2 524.145 133.679 524.384C134.157 524.619 134.524 524.951 134.777 525.38C135.036 525.805 135.166 526.303 135.166 526.875C135.166 527.187 135.112 527.504 135.004 527.827C134.902 528.144 134.758 528.461 134.572 528.779C134.392 529.096 134.179 529.409 133.935 529.716C133.696 530.024 133.44 530.327 133.166 530.625L130.31 533.723H135.656Z" fill="black"/>
<path d="M130.383 583.12L129.299 582.842L129.834 577.532H135.305V578.784H130.983L130.661 581.685C130.857 581.573 131.103 581.468 131.401 581.37C131.704 581.272 132.05 581.223 132.441 581.223C132.934 581.223 133.376 581.309 133.767 581.48C134.157 581.646 134.489 581.885 134.763 582.198C135.041 582.51 135.254 582.886 135.4 583.325C135.546 583.765 135.62 584.256 135.62 584.798C135.62 585.31 135.549 585.781 135.407 586.211C135.271 586.641 135.063 587.017 134.785 587.339C134.506 587.656 134.155 587.903 133.73 588.079C133.31 588.255 132.815 588.343 132.243 588.343C131.814 588.343 131.406 588.284 131.02 588.167C130.639 588.045 130.297 587.862 129.995 587.617C129.697 587.368 129.453 587.061 129.262 586.695C129.077 586.323 128.96 585.889 128.911 585.391H130.2C130.258 585.791 130.376 586.128 130.551 586.402C130.727 586.675 130.957 586.883 131.24 587.024C131.528 587.161 131.862 587.229 132.243 587.229C132.566 587.229 132.851 587.173 133.1 587.061C133.349 586.948 133.559 586.787 133.73 586.577C133.901 586.367 134.03 586.114 134.118 585.816C134.211 585.518 134.257 585.183 134.257 584.812C134.257 584.475 134.211 584.163 134.118 583.875C134.025 583.587 133.886 583.335 133.701 583.12C133.52 582.906 133.298 582.74 133.034 582.622C132.771 582.5 132.468 582.439 132.126 582.439C131.672 582.439 131.328 582.5 131.093 582.622C130.864 582.744 130.627 582.91 130.383 583.12Z" fill="black"/>
<path d="M135.393 638.67C135.393 639.32 135.241 639.871 134.939 640.325C134.641 640.775 134.235 641.116 133.723 641.351C133.215 641.585 132.641 641.702 132.002 641.702C131.362 641.702 130.786 641.585 130.273 641.351C129.76 641.116 129.355 640.775 129.057 640.325C128.759 639.871 128.61 639.32 128.61 638.67C128.61 638.245 128.691 637.857 128.852 637.506C129.018 637.149 129.25 636.839 129.548 636.575C129.851 636.312 130.207 636.109 130.617 635.968C131.032 635.821 131.489 635.748 131.987 635.748C132.641 635.748 133.225 635.875 133.737 636.129C134.25 636.378 134.653 636.722 134.946 637.161C135.244 637.601 135.393 638.104 135.393 638.67ZM134.03 638.641C134.03 638.245 133.945 637.896 133.774 637.594C133.603 637.286 133.364 637.047 133.056 636.876C132.749 636.705 132.392 636.619 131.987 636.619C131.572 636.619 131.213 636.705 130.91 636.876C130.612 637.047 130.38 637.286 130.214 637.594C130.048 637.896 129.965 638.245 129.965 638.641C129.965 639.051 130.046 639.403 130.207 639.696C130.373 639.984 130.608 640.206 130.91 640.362C131.218 640.513 131.582 640.589 132.002 640.589C132.421 640.589 132.783 640.513 133.086 640.362C133.388 640.206 133.62 639.984 133.781 639.696C133.947 639.403 134.03 639.051 134.03 638.641ZM135.144 633.668C135.144 634.185 135.007 634.652 134.733 635.067C134.46 635.482 134.087 635.809 133.613 636.048C133.139 636.287 132.602 636.407 132.002 636.407C131.391 636.407 130.847 636.287 130.368 636.048C129.895 635.809 129.524 635.482 129.255 635.067C128.986 634.652 128.852 634.185 128.852 633.668C128.852 633.048 128.986 632.52 129.255 632.086C129.528 631.651 129.902 631.319 130.376 631.09C130.849 630.86 131.389 630.745 131.994 630.745C132.605 630.745 133.147 630.86 133.62 631.09C134.094 631.319 134.465 631.651 134.733 632.086C135.007 632.52 135.144 633.048 135.144 633.668ZM133.789 633.69C133.789 633.333 133.713 633.018 133.562 632.745C133.41 632.471 133.2 632.257 132.932 632.1C132.663 631.939 132.351 631.859 131.994 631.859C131.638 631.859 131.325 631.934 131.057 632.086C130.793 632.232 130.586 632.442 130.434 632.716C130.288 632.989 130.214 633.314 130.214 633.69C130.214 634.056 130.288 634.376 130.434 634.649C130.586 634.923 130.796 635.135 131.064 635.286C131.333 635.438 131.645 635.513 132.002 635.513C132.358 635.513 132.668 635.438 132.932 635.286C133.2 635.135 133.41 634.923 133.562 634.649C133.713 634.376 133.789 634.056 133.789 633.69Z" fill="black"/>
<path d="M135.363 688.734V690.36C135.363 691.234 135.285 691.972 135.129 692.572C134.973 693.173 134.748 693.656 134.455 694.022C134.162 694.389 133.808 694.655 133.393 694.821C132.983 694.982 132.519 695.062 132.002 695.062C131.591 695.062 131.213 695.011 130.866 694.909C130.52 694.806 130.207 694.643 129.929 694.418C129.655 694.188 129.421 693.891 129.226 693.524C129.03 693.158 128.881 692.714 128.779 692.191C128.676 691.669 128.625 691.059 128.625 690.36V688.734C128.625 687.86 128.703 687.128 128.859 686.537C129.021 685.946 129.248 685.473 129.541 685.116C129.834 684.755 130.185 684.496 130.595 684.34C131.01 684.184 131.474 684.105 131.987 684.105C132.402 684.105 132.783 684.157 133.129 684.259C133.481 684.357 133.794 684.516 134.067 684.735C134.34 684.95 134.572 685.238 134.763 685.6C134.958 685.956 135.107 686.393 135.21 686.911C135.312 687.428 135.363 688.036 135.363 688.734ZM134.001 690.58V688.507C134.001 688.029 133.972 687.609 133.913 687.248C133.859 686.881 133.779 686.569 133.671 686.31C133.564 686.051 133.427 685.841 133.261 685.68C133.1 685.519 132.912 685.402 132.697 685.329C132.487 685.25 132.251 685.211 131.987 685.211C131.665 685.211 131.379 685.272 131.13 685.395C130.881 685.512 130.671 685.7 130.5 685.958C130.334 686.217 130.207 686.557 130.119 686.977C130.031 687.396 129.987 687.907 129.987 688.507V690.58C129.987 691.059 130.014 691.481 130.068 691.847C130.127 692.213 130.212 692.531 130.324 692.799C130.437 693.063 130.573 693.28 130.734 693.451C130.896 693.622 131.081 693.749 131.291 693.832C131.506 693.91 131.743 693.949 132.002 693.949C132.334 693.949 132.624 693.886 132.873 693.759C133.122 693.632 133.33 693.434 133.496 693.166C133.667 692.892 133.794 692.543 133.877 692.118C133.96 691.688 134.001 691.176 134.001 690.58Z" fill="black"/>
<path d="M181.244 528.837H182.211C182.685 528.837 183.075 528.759 183.383 528.603C183.695 528.442 183.927 528.225 184.079 527.951C184.235 527.673 184.313 527.36 184.313 527.014C184.313 526.604 184.245 526.259 184.108 525.981C183.971 525.703 183.766 525.493 183.493 525.351C183.219 525.209 182.873 525.139 182.453 525.139C182.072 525.139 181.735 525.214 181.442 525.366C181.154 525.512 180.927 525.722 180.761 525.996C180.6 526.269 180.519 526.591 180.519 526.962H179.164C179.164 526.42 179.301 525.927 179.574 525.483C179.848 525.039 180.231 524.685 180.724 524.421C181.222 524.157 181.798 524.025 182.453 524.025C183.097 524.025 183.661 524.14 184.145 524.37C184.628 524.594 185.004 524.931 185.273 525.38C185.541 525.825 185.675 526.379 185.675 527.043C185.675 527.312 185.612 527.6 185.485 527.907C185.363 528.21 185.17 528.493 184.906 528.757C184.648 529.021 184.311 529.238 183.896 529.409C183.481 529.575 182.983 529.658 182.401 529.658H181.244V528.837ZM181.244 529.951V529.138H182.401C183.08 529.138 183.642 529.218 184.086 529.379C184.53 529.541 184.879 529.755 185.133 530.024C185.392 530.292 185.573 530.588 185.675 530.91C185.783 531.228 185.837 531.545 185.837 531.862C185.837 532.36 185.751 532.802 185.58 533.188C185.414 533.574 185.177 533.901 184.87 534.169C184.567 534.438 184.211 534.641 183.8 534.777C183.39 534.914 182.943 534.982 182.46 534.982C181.996 534.982 181.559 534.917 181.149 534.785C180.744 534.653 180.385 534.462 180.072 534.213C179.76 533.959 179.516 533.649 179.34 533.283C179.164 532.912 179.076 532.49 179.076 532.016H180.431C180.431 532.387 180.512 532.712 180.673 532.99C180.839 533.269 181.073 533.486 181.376 533.642C181.684 533.793 182.045 533.869 182.46 533.869C182.875 533.869 183.232 533.798 183.529 533.657C183.832 533.51 184.064 533.291 184.225 532.998C184.391 532.705 184.474 532.336 184.474 531.892C184.474 531.447 184.381 531.083 184.196 530.8C184.01 530.512 183.747 530.3 183.405 530.163C183.068 530.021 182.67 529.951 182.211 529.951H181.244Z" fill="black"/>
<path d="M184.467 577.517H184.584V578.667H184.467C183.749 578.667 183.149 578.784 182.665 579.019C182.182 579.248 181.798 579.558 181.515 579.949C181.232 580.335 181.027 580.769 180.9 581.253C180.778 581.736 180.717 582.227 180.717 582.725V584.292C180.717 584.766 180.773 585.186 180.885 585.552C180.998 585.913 181.151 586.219 181.347 586.468C181.542 586.717 181.762 586.905 182.006 587.031C182.255 587.158 182.514 587.222 182.782 587.222C183.095 587.222 183.373 587.163 183.617 587.046C183.861 586.924 184.067 586.756 184.233 586.541C184.403 586.321 184.533 586.062 184.621 585.764C184.709 585.467 184.753 585.139 184.753 584.783C184.753 584.466 184.713 584.16 184.635 583.867C184.557 583.57 184.438 583.306 184.276 583.076C184.115 582.842 183.913 582.659 183.669 582.527C183.429 582.39 183.144 582.322 182.812 582.322C182.436 582.322 182.084 582.415 181.757 582.6C181.435 582.781 181.169 583.02 180.959 583.318C180.754 583.611 180.636 583.931 180.607 584.278L179.889 584.27C179.958 583.723 180.085 583.257 180.27 582.871C180.461 582.481 180.695 582.163 180.973 581.919C181.256 581.67 181.571 581.49 181.918 581.377C182.27 581.26 182.641 581.201 183.031 581.201C183.564 581.201 184.023 581.302 184.408 581.502C184.794 581.702 185.111 581.97 185.36 582.307C185.609 582.639 185.793 583.015 185.91 583.435C186.032 583.85 186.093 584.278 186.093 584.717C186.093 585.22 186.022 585.691 185.88 586.131C185.739 586.57 185.526 586.956 185.243 587.288C184.965 587.62 184.621 587.879 184.211 588.064C183.8 588.25 183.324 588.343 182.782 588.343C182.206 588.343 181.703 588.225 181.274 587.991C180.844 587.752 180.487 587.434 180.204 587.039C179.921 586.643 179.709 586.204 179.567 585.72C179.425 585.237 179.355 584.746 179.355 584.248V583.611C179.355 582.859 179.43 582.122 179.582 581.399C179.733 580.677 179.994 580.022 180.365 579.436C180.741 578.85 181.261 578.384 181.925 578.037C182.589 577.691 183.437 577.517 184.467 577.517Z" fill="black"/>
<path d="M180.614 640.421H180.754C181.535 640.421 182.17 640.311 182.658 640.091C183.146 639.871 183.522 639.576 183.786 639.205C184.049 638.834 184.23 638.416 184.328 637.952C184.425 637.484 184.474 637.003 184.474 636.51V634.876C184.474 634.393 184.418 633.963 184.306 633.587C184.198 633.211 184.047 632.896 183.852 632.642C183.661 632.388 183.444 632.196 183.2 632.064C182.956 631.932 182.697 631.866 182.423 631.866C182.111 631.866 181.83 631.929 181.581 632.056C181.337 632.178 181.129 632.352 180.959 632.576C180.793 632.801 180.666 633.065 180.578 633.367C180.49 633.67 180.446 634 180.446 634.356C180.446 634.674 180.485 634.981 180.563 635.279C180.641 635.577 180.761 635.845 180.922 636.085C181.083 636.324 181.283 636.514 181.523 636.656C181.767 636.793 182.052 636.861 182.379 636.861C182.682 636.861 182.965 636.802 183.229 636.685C183.498 636.563 183.734 636.4 183.94 636.195C184.15 635.985 184.316 635.748 184.438 635.484C184.565 635.22 184.638 634.945 184.657 634.656H185.302C185.302 635.062 185.221 635.462 185.06 635.858C184.904 636.248 184.684 636.605 184.401 636.927C184.118 637.249 183.786 637.508 183.405 637.703C183.024 637.894 182.609 637.989 182.16 637.989C181.632 637.989 181.176 637.886 180.79 637.681C180.404 637.476 180.087 637.203 179.838 636.861C179.594 636.519 179.411 636.138 179.289 635.719C179.171 635.294 179.113 634.864 179.113 634.429C179.113 633.922 179.184 633.446 179.325 633.001C179.467 632.557 179.677 632.166 179.955 631.829C180.233 631.488 180.578 631.221 180.988 631.031C181.403 630.841 181.881 630.745 182.423 630.745C183.034 630.745 183.554 630.867 183.983 631.112C184.413 631.356 184.762 631.683 185.031 632.093C185.304 632.503 185.504 632.965 185.631 633.477C185.758 633.99 185.822 634.517 185.822 635.059V635.55C185.822 636.102 185.785 636.663 185.712 637.235C185.644 637.801 185.509 638.343 185.309 638.861C185.114 639.378 184.828 639.842 184.452 640.252C184.076 640.657 183.586 640.98 182.98 641.219C182.379 641.453 181.637 641.571 180.754 641.571H180.614V640.421Z" fill="black"/>
<path d="M186.349 693.766V694.916H180.702V693.766H186.349ZM180.988 684.252V694.916H179.574V684.252H180.988ZM185.602 688.837V689.987H180.702V688.837H185.602ZM186.276 684.252V685.409H180.702V684.252H186.276Z" fill="black"/>
<g filter="url(#filter21_i_719_139)">
<rect x="1458" y="97.8359" width="57" height="57" rx="5" fill="#EEEEEE"/>
</g>
<g filter="url(#filter22_i_719_139)">
<rect x="267.262" y="81.8359" width="57" height="57" rx="5" transform="rotate(75 267.262 81.8359)" fill="#EEEEEE"/>
</g>
<g filter="url(#filter23_i_719_139)">
<rect x="299.508" y="1200.79" width="57" height="57" rx="5" transform="rotate(180 299.508 1200.79)" fill="#EEEEEE"/>
</g>
<g filter="url(#filter24_i_719_139)">
<rect x="1438.75" y="1193.75" width="57" height="57" rx="5" transform="rotate(-105 1438.75 1193.75)" fill="#EEEEEE"/>
</g>
<g filter="url(#filter25_i_719_139)">
<rect x="1581" y="272.836" width="57" height="57" rx="5" fill="#EEEEEE"/>
</g>
<g filter="url(#filter26_i_719_139)">
<rect x="130.059" y="245.938" width="57" height="57" rx="5" transform="rotate(75 130.059 245.938)" fill="#EEEEEE"/>
</g>
<g filter="url(#filter27_i_719_139)">
<rect x="176.508" y="1025.79" width="57" height="57" rx="5" transform="rotate(180 176.508 1025.79)" fill="#EEEEEE"/>
</g>
<g filter="url(#filter28_i_719_139)">
<rect x="1575.96" y="1029.65" width="57" height="57" rx="5" transform="rotate(-105 1575.96 1029.65)" fill="#EEEEEE"/>
</g>
<defs>
<filter id="filter0_i_719_139" x="283" y="608.836" width="55" height="59" filterUnits="userSpaceOnUse" color-interpolation-filters="sRGB">
<feFlood flood-opacity="0" result="BackgroundImageFix"/>
<feBlend mode="normal" in="SourceGraphic" in2="BackgroundImageFix" result="shape"/>
<feColorMatrix in="SourceAlpha" type="matrix" values="0 0 0 0 0 0 0 0 0 0 0 0 0 0 0 0 0 0 127 0" result="hardAlpha"/>
<feOffset dy="4"/>
<feGaussianBlur stdDeviation="2"/>
<feComposite in2="hardAlpha" operator="arithmetic" k2="-1" k3="1"/>
<feColorMatrix type="matrix" values="0 0 0 0 0 0 0 0 0 0 0 0 0 0 0 0 0 0 0.25 0"/>
<feBlend mode="normal" in2="shape" result="effect1_innerShadow_719_139"/>
</filter>
<filter id="filter1_i_719_139" x="845" y="1163.84" width="55" height="59" filterUnits="userSpaceOnUse" color-interpolation-filters="sRGB">
<feFlood flood-opacity="0" result="BackgroundImageFix"/>
<feBlend mode="normal" in="SourceGraphic" in2="BackgroundImageFix" result="shape"/>
<feColorMatrix in="SourceAlpha" type="matrix" values="0 0 0 0 0 0 0 0 0 0 0 0 0 0 0 0 0 0 127 0" result="hardAlpha"/>
<feOffset dy="4"/>
<feGaussianBlur stdDeviation="2"/>
<feComposite in2="hardAlpha" operator="arithmetic" k2="-1" k3="1"/>
<feColorMatrix type="matrix" values="0 0 0 0 0 0 0 0 0 0 0 0 0 0 0 0 0 0 0.25 0"/>
<feBlend mode="normal" in2="shape" result="effect1_innerShadow_719_139"/>
</filter>
<filter id="filter2_i_719_139" x="1240" y="1001.84" width="55" height="59" filterUnits="userSpaceOnUse" color-interpolation-filters="sRGB">
<feFlood flood-opacity="0" result="BackgroundImageFix"/>
<feBlend mode="normal" in="SourceGraphic" in2="BackgroundImageFix" result="shape"/>
<feColorMatrix in="SourceAlpha" type="matrix" values="0 0 0 0 0 0 0 0 0 0 0 0 0 0 0 0 0 0 127 0" result="hardAlpha"/>
<feOffset dy="4"/>
<feGaussianBlur stdDeviation="2"/>
<feComposite in2="hardAlpha" operator="arithmetic" k2="-1" k3="1"/>
<feColorMatrix type="matrix" values="0 0 0 0 0 0 0 0 0 0 0 0 0 0 0 0 0 0 0.25 0"/>
<feBlend mode="normal" in2="shape" result="effect1_innerShadow_719_139"/>
</filter>
<filter id="filter3_i_719_139" x="450" y="1006.84" width="55" height="59" filterUnits="userSpaceOnUse" color-interpolation-filters="sRGB">
<feFlood flood-opacity="0" result="BackgroundImageFix"/>
<feBlend mode="normal" in="SourceGraphic" in2="BackgroundImageFix" result="shape"/>
<feColorMatrix in="SourceAlpha" type="matrix" values="0 0 0 0 0 0 0 0 0 0 0 0 0 0 0 0 0 0 127 0" result="hardAlpha"/>
<feOffset dy="4"/>
<feGaussianBlur stdDeviation="2"/>
<feComposite in2="hardAlpha" operator="arithmetic" k2="-1" k3="1"/>
<feColorMatrix type="matrix" values="0 0 0 0 0 0 0 0 0 0 0 0 0 0 0 0 0 0 0.25 0"/>
<feBlend mode="normal" in2="shape" result="effect1_innerShadow_719_139"/>
</filter>
<filter id="filter4_i_719_139" x="845" y="49.8359" width="55" height="59" filterUnits="userSpaceOnUse" color-interpolation-filters="sRGB">
<feFlood flood-opacity="0" result="BackgroundImageFix"/>
<feBlend mode="normal" in="SourceGraphic" in2="BackgroundImageFix" result="shape"/>
<feColorMatrix in="SourceAlpha" type="matrix" values="0 0 0 0 0 0 0 0 0 0 0 0 0 0 0 0 0 0 127 0" result="hardAlpha"/>
<feOffset dy="4"/>
<feGaussianBlur stdDeviation="2"/>
<feComposite in2="hardAlpha" operator="arithmetic" k2="-1" k3="1"/>
<feColorMatrix type="matrix" values="0 0 0 0 0 0 0 0 0 0 0 0 0 0 0 0 0 0 0.25 0"/>
<feBlend mode="normal" in2="shape" result="effect1_innerShadow_719_139"/>
</filter>
<filter id="filter5_i_719_139" x="1397" y="608.836" width="55" height="59" filterUnits="userSpaceOnUse" color-interpolation-filters="sRGB">
<feFlood flood-opacity="0" result="BackgroundImageFix"/>
<feBlend mode="normal" in="SourceGraphic" in2="BackgroundImageFix" result="shape"/>
<feColorMatrix in="SourceAlpha" type="matrix" values="0 0 0 0 0 0 0 0 0 0 0 0 0 0 0 0 0 0 127 0" result="hardAlpha"/>
<feOffset dy="4"/>
<feGaussianBlur stdDeviation="2"/>
<feComposite in2="hardAlpha" operator="arithmetic" k2="-1" k3="1"/>
<feColorMatrix type="matrix" values="0 0 0 0 0 0 0 0 0 0 0 0 0 0 0 0 0 0 0.25 0"/>
<feBlend mode="normal" in2="shape" result="effect1_innerShadow_719_139"/>
</filter>
<filter id="filter6_i_719_139" x="447" y="217.836" width="55" height="59" filterUnits="userSpaceOnUse" color-interpolation-filters="sRGB">
<feFlood flood-opacity="0" result="BackgroundImageFix"/>
<feBlend mode="normal" in="SourceGraphic" in2="BackgroundImageFix" result="shape"/>
<feColorMatrix in="SourceAlpha" type="matrix" values="0 0 0 0 0 0 0 0 0 0 0 0 0 0 0 0 0 0 127 0" result="hardAlpha"/>
<feOffset dy="4"/>
<feGaussianBlur stdDeviation="2"/>
<feComposite in2="hardAlpha" operator="arithmetic" k2="-1" k3="1"/>
<feColorMatrix type="matrix" values="0 0 0 0 0 0 0 0 0 0 0 0 0 0 0 0 0 0 0.25 0"/>
<feBlend mode="normal" in2="shape" result="effect1_innerShadow_719_139"/>
</filter>
<filter id="filter7_i_719_139" x="1232" y="213.836" width="55" height="59" filterUnits="userSpaceOnUse" color-interpolation-filters="sRGB">
<feFlood flood-opacity="0" result="BackgroundImageFix"/>
<feBlend mode="normal" in="SourceGraphic" in2="BackgroundImageFix" result="shape"/>
<feColorMatrix in="SourceAlpha" type="matrix" values="0 0 0 0 0 0 0 0 0 0 0 0 0 0 0 0 0 0 127 0" result="hardAlpha"/>
<feOffset dy="4"/>
<feGaussianBlur stdDeviation="2"/>
<feComposite in2="hardAlpha" operator="arithmetic" k2="-1" k3="1"/>
<feColorMatrix type="matrix" values="0 0 0 0 0 0 0 0 0 0 0 0 0 0 0 0 0 0 0.25 0"/>
<feBlend mode="normal" in2="shape" result="effect1_innerShadow_719_139"/>
</filter>
<filter id="filter8_i_719_139" x="40" y="477.836" width="183" height="268" filterUnits="userSpaceOnUse" color-interpolation-filters="sRGB">
<feFlood flood-opacity="0" result="BackgroundImageFix"/>
<feBlend mode="normal" in="SourceGraphic" in2="BackgroundImageFix" result="shape"/>
<feColorMatrix in="SourceAlpha" type="matrix" values="0 0 0 0 0 0 0 0 0 0 0 0 0 0 0 0 0 0 127 0" result="hardAlpha"/>
<feOffset dy="4"/>
<feGaussianBlur stdDeviation="2"/>
<feComposite in2="hardAlpha" operator="arithmetic" k2="-1" k3="1"/>
<feColorMatrix type="matrix" values="0 0 0 0 0 0 0 0 0 0 0 0 0 0 0 0 0 0 0.25 0"/>
<feBlend mode="normal" in2="shape" result="effect1_innerShadow_719_139"/>
</filter>
<filter id="filter9_i_719_139" x="63" y="510.836" width="36.8008" height="40.8" filterUnits="userSpaceOnUse" color-interpolation-filters="sRGB">
<feFlood flood-opacity="0" result="BackgroundImageFix"/>
<feBlend mode="normal" in="SourceGraphic" in2="BackgroundImageFix" result="shape"/>
<feColorMatrix in="SourceAlpha" type="matrix" values="0 0 0 0 0 0 0 0 0 0 0 0 0 0 0 0 0 0 127 0" result="hardAlpha"/>
<feOffset dy="4"/>
<feGaussianBlur stdDeviation="2"/>
<feComposite in2="hardAlpha" operator="arithmetic" k2="-1" k3="1"/>
<feColorMatrix type="matrix" values="0 0 0 0 0 0 0 0 0 0 0 0 0 0 0 0 0 0 0.25 0"/>
<feBlend mode="normal" in2="shape" result="effect1_innerShadow_719_139"/>
</filter>
<filter id="filter10_i_719_139" x="63" y="564.196" width="36.8008" height="40.8" filterUnits="userSpaceOnUse" color-interpolation-filters="sRGB">
<feFlood flood-opacity="0" result="BackgroundImageFix"/>
<feBlend mode="normal" in="SourceGraphic" in2="BackgroundImageFix" result="shape"/>
<feColorMatrix in="SourceAlpha" type="matrix" values="0 0 0 0 0 0 0 0 0 0 0 0 0 0 0 0 0 0 127 0" result="hardAlpha"/>
<feOffset dy="4"/>
<feGaussianBlur stdDeviation="2"/>
<feComposite in2="hardAlpha" operator="arithmetic" k2="-1" k3="1"/>
<feColorMatrix type="matrix" values="0 0 0 0 0 0 0 0 0 0 0 0 0 0 0 0 0 0 0.25 0"/>
<feBlend mode="normal" in2="shape" result="effect1_innerShadow_719_139"/>
</filter>
<filter id="filter11_i_719_139" x="63" y="617.556" width="36.8008" height="40.8" filterUnits="userSpaceOnUse" color-interpolation-filters="sRGB">
<feFlood flood-opacity="0" result="BackgroundImageFix"/>
<feBlend mode="normal" in="SourceGraphic" in2="BackgroundImageFix" result="shape"/>
<feColorMatrix in="SourceAlpha" type="matrix" values="0 0 0 0 0 0 0 0 0 0 0 0 0 0 0 0 0 0 127 0" result="hardAlpha"/>
<feOffset dy="4"/>
<feGaussianBlur stdDeviation="2"/>
<feComposite in2="hardAlpha" operator="arithmetic" k2="-1" k3="1"/>
<feColorMatrix type="matrix" values="0 0 0 0 0 0 0 0 0 0 0 0 0 0 0 0 0 0 0.25 0"/>
<feBlend mode="normal" in2="shape" result="effect1_innerShadow_719_139"/>
</filter>
<filter id="filter12_i_719_139" x="63" y="670.916" width="36.8008" height="40.7998" filterUnits="userSpaceOnUse" color-interpolation-filters="sRGB">
<feFlood flood-opacity="0" result="BackgroundImageFix"/>
<feBlend mode="normal" in="SourceGraphic" in2="BackgroundImageFix" result="shape"/>
<feColorMatrix in="SourceAlpha" type="matrix" values="0 0 0 0 0 0 0 0 0 0 0 0 0 0 0 0 0 0 127 0" result="hardAlpha"/>
<feOffset dy="4"/>
<feGaussianBlur stdDeviation="2"/>
<feComposite in2="hardAlpha" operator="arithmetic" k2="-1" k3="1"/>
<feColorMatrix type="matrix" values="0 0 0 0 0 0 0 0 0 0 0 0 0 0 0 0 0 0 0.25 0"/>
<feBlend mode="normal" in2="shape" result="effect1_innerShadow_719_139"/>
</filter>
<filter id="filter13_i_719_139" x="113.602" y="510.836" width="36.8008" height="40.8" filterUnits="userSpaceOnUse" color-interpolation-filters="sRGB">
<feFlood flood-opacity="0" result="BackgroundImageFix"/>
<feBlend mode="normal" in="SourceGraphic" in2="BackgroundImageFix" result="shape"/>
<feColorMatrix in="SourceAlpha" type="matrix" values="0 0 0 0 0 0 0 0 0 0 0 0 0 0 0 0 0 0 127 0" result="hardAlpha"/>
<feOffset dy="4"/>
<feGaussianBlur stdDeviation="2"/>
<feComposite in2="hardAlpha" operator="arithmetic" k2="-1" k3="1"/>
<feColorMatrix type="matrix" values="0 0 0 0 0 0 0 0 0 0 0 0 0 0 0 0 0 0 0.25 0"/>
<feBlend mode="normal" in2="shape" result="effect1_innerShadow_719_139"/>
</filter>
<filter id="filter14_i_719_139" x="113.602" y="564.196" width="36.8008" height="40.8" filterUnits="userSpaceOnUse" color-interpolation-filters="sRGB">
<feFlood flood-opacity="0" result="BackgroundImageFix"/>
<feBlend mode="normal" in="SourceGraphic" in2="BackgroundImageFix" result="shape"/>
<feColorMatrix in="SourceAlpha" type="matrix" values="0 0 0 0 0 0 0 0 0 0 0 0 0 0 0 0 0 0 127 0" result="hardAlpha"/>
<feOffset dy="4"/>
<feGaussianBlur stdDeviation="2"/>
<feComposite in2="hardAlpha" operator="arithmetic" k2="-1" k3="1"/>
<feColorMatrix type="matrix" values="0 0 0 0 0 0 0 0 0 0 0 0 0 0 0 0 0 0 0.25 0"/>
<feBlend mode="normal" in2="shape" result="effect1_innerShadow_719_139"/>
</filter>
<filter id="filter15_i_719_139" x="113.602" y="617.556" width="36.8008" height="40.8" filterUnits="userSpaceOnUse" color-interpolation-filters="sRGB">
<feFlood flood-opacity="0" result="BackgroundImageFix"/>
<feBlend mode="normal" in="SourceGraphic" in2="BackgroundImageFix" result="shape"/>
<feColorMatrix in="SourceAlpha" type="matrix" values="0 0 0 0 0 0 0 0 0 0 0 0 0 0 0 0 0 0 127 0" result="hardAlpha"/>
<feOffset dy="4"/>
<feGaussianBlur stdDeviation="2"/>
<feComposite in2="hardAlpha" operator="arithmetic" k2="-1" k3="1"/>
<feColorMatrix type="matrix" values="0 0 0 0 0 0 0 0 0 0 0 0 0 0 0 0 0 0 0.25 0"/>
<feBlend mode="normal" in2="shape" result="effect1_innerShadow_719_139"/>
</filter>
<filter id="filter16_i_719_139" x="113.602" y="670.916" width="36.8008" height="40.7998" filterUnits="userSpaceOnUse" color-interpolation-filters="sRGB">
<feFlood flood-opacity="0" result="BackgroundImageFix"/>
<feBlend mode="normal" in="SourceGraphic" in2="BackgroundImageFix" result="shape"/>
<feColorMatrix in="SourceAlpha" type="matrix" values="0 0 0 0 0 0 0 0 0 0 0 0 0 0 0 0 0 0 127 0" result="hardAlpha"/>
<feOffset dy="4"/>
<feGaussianBlur stdDeviation="2"/>
<feComposite in2="hardAlpha" operator="arithmetic" k2="-1" k3="1"/>
<feColorMatrix type="matrix" values="0 0 0 0 0 0 0 0 0 0 0 0 0 0 0 0 0 0 0.25 0"/>
<feBlend mode="normal" in2="shape" result="effect1_innerShadow_719_139"/>
</filter>
<filter id="filter17_i_719_139" x="164.199" y="510.836" width="36.8008" height="40.8" filterUnits="userSpaceOnUse" color-interpolation-filters="sRGB">
<feFlood flood-opacity="0" result="BackgroundImageFix"/>
<feBlend mode="normal" in="SourceGraphic" in2="BackgroundImageFix" result="shape"/>
<feColorMatrix in="SourceAlpha" type="matrix" values="0 0 0 0 0 0 0 0 0 0 0 0 0 0 0 0 0 0 127 0" result="hardAlpha"/>
<feOffset dy="4"/>
<feGaussianBlur stdDeviation="2"/>
<feComposite in2="hardAlpha" operator="arithmetic" k2="-1" k3="1"/>
<feColorMatrix type="matrix" values="0 0 0 0 0 0 0 0 0 0 0 0 0 0 0 0 0 0 0.25 0"/>
<feBlend mode="normal" in2="shape" result="effect1_innerShadow_719_139"/>
</filter>
<filter id="filter18_i_719_139" x="164.199" y="564.196" width="36.8008" height="40.8" filterUnits="userSpaceOnUse" color-interpolation-filters="sRGB">
<feFlood flood-opacity="0" result="BackgroundImageFix"/>
<feBlend mode="normal" in="SourceGraphic" in2="BackgroundImageFix" result="shape"/>
<feColorMatrix in="SourceAlpha" type="matrix" values="0 0 0 0 0 0 0 0 0 0 0 0 0 0 0 0 0 0 127 0" result="hardAlpha"/>
<feOffset dy="4"/>
<feGaussianBlur stdDeviation="2"/>
<feComposite in2="hardAlpha" operator="arithmetic" k2="-1" k3="1"/>
<feColorMatrix type="matrix" values="0 0 0 0 0 0 0 0 0 0 0 0 0 0 0 0 0 0 0.25 0"/>
<feBlend mode="normal" in2="shape" result="effect1_innerShadow_719_139"/>
</filter>
<filter id="filter19_i_719_139" x="164.199" y="617.556" width="36.8008" height="40.8" filterUnits="userSpaceOnUse" color-interpolation-filters="sRGB">
<feFlood flood-opacity="0" result="BackgroundImageFix"/>
<feBlend mode="normal" in="SourceGraphic" in2="BackgroundImageFix" result="shape"/>
<feColorMatrix in="SourceAlpha" type="matrix" values="0 0 0 0 0 0 0 0 0 0 0 0 0 0 0 0 0 0 127 0" result="hardAlpha"/>
<feOffset dy="4"/>
<feGaussianBlur stdDeviation="2"/>
<feComposite in2="hardAlpha" operator="arithmetic" k2="-1" k3="1"/>
<feColorMatrix type="matrix" values="0 0 0 0 0 0 0 0 0 0 0 0 0 0 0 0 0 0 0.25 0"/>
<feBlend mode="normal" in2="shape" result="effect1_innerShadow_719_139"/>
</filter>
<filter id="filter20_i_719_139" x="164.199" y="670.916" width="36.8008" height="40.7998" filterUnits="userSpaceOnUse" color-interpolation-filters="sRGB">
<feFlood flood-opacity="0" result="BackgroundImageFix"/>
<feBlend mode="normal" in="SourceGraphic" in2="BackgroundImageFix" result="shape"/>
<feColorMatrix in="SourceAlpha" type="matrix" values="0 0 0 0 0 0 0 0 0 0 0 0 0 0 0 0 0 0 127 0" result="hardAlpha"/>
<feOffset dy="4"/>
<feGaussianBlur stdDeviation="2"/>
<feComposite in2="hardAlpha" operator="arithmetic" k2="-1" k3="1"/>
<feColorMatrix type="matrix" values="0 0 0 0 0 0 0 0 0 0 0 0 0 0 0 0 0 0 0.25 0"/>
<feBlend mode="normal" in2="shape" result="effect1_innerShadow_719_139"/>
</filter>
<filter id="filter21_i_719_139" x="1458" y="97.8359" width="57" height="61" filterUnits="userSpaceOnUse" color-interpolation-filters="sRGB">
<feFlood flood-opacity="0" result="BackgroundImageFix"/>
<feBlend mode="normal" in="SourceGraphic" in2="BackgroundImageFix" result="shape"/>
<feColorMatrix in="SourceAlpha" type="matrix" values="0 0 0 0 0 0 0 0 0 0 0 0 0 0 0 0 0 0 127 0" result="hardAlpha"/>
<feOffset dy="4"/>
<feGaussianBlur stdDeviation="2"/>
<feComposite in2="hardAlpha" operator="arithmetic" k2="-1" k3="1"/>
<feColorMatrix type="matrix" values="0 0 0 0 0 0 0 0 0 0 0 0 0 0 0 0 0 0 0.25 0"/>
<feBlend mode="normal" in2="shape" result="effect1_innerShadow_719_139"/>
</filter>
<filter id="filter22_i_719_139" x="213.328" y="82.9585" width="67.5625" height="71.5654" filterUnits="userSpaceOnUse" color-interpolation-filters="sRGB">
<feFlood flood-opacity="0" result="BackgroundImageFix"/>
<feBlend mode="normal" in="SourceGraphic" in2="BackgroundImageFix" result="shape"/>
<feColorMatrix in="SourceAlpha" type="matrix" values="0 0 0 0 0 0 0 0 0 0 0 0 0 0 0 0 0 0 127 0" result="hardAlpha"/>
<feOffset dy="4"/>
<feGaussianBlur stdDeviation="2"/>
<feComposite in2="hardAlpha" operator="arithmetic" k2="-1" k3="1"/>
<feColorMatrix type="matrix" values="0 0 0 0 0 0 0 0 0 0 0 0 0 0 0 0 0 0 0.25 0"/>
<feBlend mode="normal" in2="shape" result="effect1_innerShadow_719_139"/>
</filter>
<filter id="filter23_i_719_139" x="242.508" y="1143.79" width="57" height="61" filterUnits="userSpaceOnUse" color-interpolation-filters="sRGB">
<feFlood flood-opacity="0" result="BackgroundImageFix"/>
<feBlend mode="normal" in="SourceGraphic" in2="BackgroundImageFix" result="shape"/>
<feColorMatrix in="SourceAlpha" type="matrix" values="0 0 0 0 0 0 0 0 0 0 0 0 0 0 0 0 0 0 127 0" result="hardAlpha"/>
<feOffset dy="4"/>
<feGaussianBlur stdDeviation="2"/>
<feComposite in2="hardAlpha" operator="arithmetic" k2="-1" k3="1"/>
<feColorMatrix type="matrix" values="0 0 0 0 0 0 0 0 0 0 0 0 0 0 0 0 0 0 0.25 0"/>
<feBlend mode="normal" in2="shape" result="effect1_innerShadow_719_139"/>
</filter>
<filter id="filter24_i_719_139" x="1425.12" y="1125.06" width="67.5625" height="71.5654" filterUnits="userSpaceOnUse" color-interpolation-filters="sRGB">
<feFlood flood-opacity="0" result="BackgroundImageFix"/>
<feBlend mode="normal" in="SourceGraphic" in2="BackgroundImageFix" result="shape"/>
<feColorMatrix in="SourceAlpha" type="matrix" values="0 0 0 0 0 0 0 0 0 0 0 0 0 0 0 0 0 0 127 0" result="hardAlpha"/>
<feOffset dy="4"/>
<feGaussianBlur stdDeviation="2"/>
<feComposite in2="hardAlpha" operator="arithmetic" k2="-1" k3="1"/>
<feColorMatrix type="matrix" values="0 0 0 0 0 0 0 0 0 0 0 0 0 0 0 0 0 0 0.25 0"/>
<feBlend mode="normal" in2="shape" result="effect1_innerShadow_719_139"/>
</filter>
<filter id="filter25_i_719_139" x="1581" y="272.836" width="57" height="61" filterUnits="userSpaceOnUse" color-interpolation-filters="sRGB">
<feFlood flood-opacity="0" result="BackgroundImageFix"/>
<feBlend mode="normal" in="SourceGraphic" in2="BackgroundImageFix" result="shape"/>
<feColorMatrix in="SourceAlpha" type="matrix" values="0 0 0 0 0 0 0 0 0 0 0 0 0 0 0 0 0 0 127 0" result="hardAlpha"/>
<feOffset dy="4"/>
<feGaussianBlur stdDeviation="2"/>
<feComposite in2="hardAlpha" operator="arithmetic" k2="-1" k3="1"/>
<feColorMatrix type="matrix" values="0 0 0 0 0 0 0 0 0 0 0 0 0 0 0 0 0 0 0.25 0"/>
<feBlend mode="normal" in2="shape" result="effect1_innerShadow_719_139"/>
</filter>
<filter id="filter26_i_719_139" x="76.125" y="247.061" width="67.5625" height="71.5654" filterUnits="userSpaceOnUse" color-interpolation-filters="sRGB">
<feFlood flood-opacity="0" result="BackgroundImageFix"/>
<feBlend mode="normal" in="SourceGraphic" in2="BackgroundImageFix" result="shape"/>
<feColorMatrix in="SourceAlpha" type="matrix" values="0 0 0 0 0 0 0 0 0 0 0 0 0 0 0 0 0 0 127 0" result="hardAlpha"/>
<feOffset dy="4"/>
<feGaussianBlur stdDeviation="2"/>
<feComposite in2="hardAlpha" operator="arithmetic" k2="-1" k3="1"/>
<feColorMatrix type="matrix" values="0 0 0 0 0 0 0 0 0 0 0 0 0 0 0 0 0 0 0.25 0"/>
<feBlend mode="normal" in2="shape" result="effect1_innerShadow_719_139"/>
</filter>
<filter id="filter27_i_719_139" x="119.508" y="968.792" width="57" height="61" filterUnits="userSpaceOnUse" color-interpolation-filters="sRGB">
<feFlood flood-opacity="0" result="BackgroundImageFix"/>
<feBlend mode="normal" in="SourceGraphic" in2="BackgroundImageFix" result="shape"/>
<feColorMatrix in="SourceAlpha" type="matrix" values="0 0 0 0 0 0 0 0 0 0 0 0 0 0 0 0 0 0 127 0" result="hardAlpha"/>
<feOffset dy="4"/>
<feGaussianBlur stdDeviation="2"/>
<feComposite in2="hardAlpha" operator="arithmetic" k2="-1" k3="1"/>
<feColorMatrix type="matrix" values="0 0 0 0 0 0 0 0 0 0 0 0 0 0 0 0 0 0 0.25 0"/>
<feBlend mode="normal" in2="shape" result="effect1_innerShadow_719_139"/>
</filter>
<filter id="filter28_i_719_139" x="1562.33" y="960.958" width="67.5625" height="71.5654" filterUnits="userSpaceOnUse" color-interpolation-filters="sRGB">
<feFlood flood-opacity="0" result="BackgroundImageFix"/>
<feBlend mode="normal" in="SourceGraphic" in2="BackgroundImageFix" result="shape"/>
<feColorMatrix in="SourceAlpha" type="matrix" values="0 0 0 0 0 0 0 0 0 0 0 0 0 0 0 0 0 0 127 0" result="hardAlpha"/>
<feOffset dy="4"/>
<feGaussianBlur stdDeviation="2"/>
<feComposite in2="hardAlpha" operator="arithmetic" k2="-1" k3="1"/>
<feColorMatrix type="matrix" values="0 0 0 0 0 0 0 0 0 0 0 0 0 0 0 0 0 0 0.25 0"/>
<feBlend mode="normal" in2="shape" result="effect1_innerShadow_719_139"/>
</filter>
</defs>
</svg>
