<svg viewBox="0 0 1199 1198" fill="none" xmlns="http://www.w3.org/2000/svg" preserveAspectRatio='none'>
<circle cx="599.501" cy="598.837" r="548.727" stroke="#929292" stroke-width="100"/>
<circle cx="599.499" cy="598.837" r="490.312" stroke="#F4F4F4" stroke-width="50"/>
<path d="M1041 598.5C1041 842.334 843.334 1040 599.5 1040C355.666 1040 158 842.334 158 598.5C158 354.666 355.666 157 599.5 157C843.334 157 1041 354.666 1041 598.5Z" stroke="#929292" stroke-width="50"/>
<path d="M1018 598.5C1018 829.631 830.631 1017 599.5 1017C368.369 1017 181 829.631 181 598.5C181 367.369 368.369 180 599.5 180C830.631 180 1018 367.369 1018 598.5Z" stroke="#F4F4F4" stroke-width="20"/>
<path d="M998 599C998 819.373 819.574 998 599.5 998C379.426 998 201 819.373 201 599C201 378.627 379.426 200 599.5 200C819.574 200 998 378.627 998 599Z" stroke="#929292" stroke-width="20"/>
</svg>
